<svg version="1.0" xmlns="http://www.w3.org/2000/svg" width="400" height="400" viewBox="0 0 1080 1080">
  <path d="M142 536v87h51.2l-.5-44.8c-.3-34.5-.8-47.6-2.1-57.5-1-7-1.6-13.3-1.4-13.9s7.6 25.2 16.5 57.3l16 58.4 22 .3 21.9.2 15.8-58.2c8.7-32.1 16.3-58.8 16.8-59.3.6-.6.7.3.4 2.5-2.3 14-2.9 24.9-3.3 67.2l-.5 47.8H350V449h-37.9c-35.3 0-38 .1-38.5 1.7-.3 1-6 22.7-12.6 48.3-14.1 54.2-13 50.4-14 49.4-.4-.5-6.5-23.1-13.5-50.2L220.6 449H142zm244 0v87h56V449h-56zm86.6-74.3c2.5 7.1 16.3 46.1 30.7 86.8l26.3 74 32.5.3 32.4.2 26.3-74.2c14.4-40.9 28.2-80 30.7-87.1L656 449l-28.7.2-28.6.3-17.2 56.5c-18.6 61.5-18 59.7-18.7 59-.4-.4-30.7-101.1-34-112.8l-.9-3.2h-59.8zM682 536v87h56V449h-56zm142.5-83.8c-3.8 10.9-60.9 172.7-61.2 173.5-.4 1 5.6 1.3 28.1 1.3H820l1-2.3c.6-1.2 8.7-27.6 18-58.6 9.4-31.1 17.2-56.7 17.5-56.9.6-.6-.7-5 18 57.8 9.1 30.5 17 56.5 17.5 57.7l1 2.3h29.5c28.3 0 29.6-.1 29.3-1.9-.2-1-14-40.6-30.8-87.9L890.5 451h-32.8c-25.3 0-32.9.3-33.2 1.2M293 645c-2.5 2.5-2.5 3.5.1 6.1 1.4 1.4 2.7 1.8 4.2 1.3 3.9-1.2 4.9-5 2.1-7.8-2.1-2.1-4-2-6.4.4m-19 18.3c0 16 .3 19.6 1.6 21.5 3.4 4.8 11.4 5.2 11.4.6 0-1.7-.8-2.7-2.5-3.4l-2.5-1v-37h-8zm110.3-13.6c-1.8.3-2.3 1.1-2.3 3.4 0 2.4-.4 2.9-2.5 2.9-2.2 0-2.5.4-2.5 3.5s.3 3.5 2.5 3.5c2.5 0 2.5.1 2.5 9 0 11.2 1.4 14.5 6.8 15.9 2.6.7 5 .7 7.5 0 4.2-1.1 4-.9 2.7-4.4-.8-2.1-1.5-2.6-3.2-2.2-1.2.3-3 .2-4-.4-1.5-.8-1.8-2.2-1.8-9.4V663h4.5c4.5 0 4.5 0 4.5-3.5s0-3.5-4.5-3.5-4.5 0-4.5-3.5c0-3.7-.4-3.8-5.7-2.8m-137.4 8.6c-6.7 4.5-8.9 14.8-4.9 22.7 2.9 5.7 8 7.8 17.1 7.2 3.1-.2 8.9-5.2 8.9-7.6 0-.9-1.1-2.2-2.5-2.8-2.2-1-2.8-.8-4.9 1.5-6.2 6.7-14.7-.8-12.2-10.7 1.4-5.6 7.9-7.5 12.1-3.6l2.2 2 2.6-2c2.2-1.8 2.5-2.5 1.7-4.1-2.8-5.1-14.1-6.6-20.1-2.6m45.8-1.6c-.4.3-.7 7.5-.7 16V688h8v-32h-3.3c-1.9 0-3.7.3-4 .7m22.4 1.1c-4.8 2.6-7.1 7.4-7.1 14.7 0 9.3 3.9 14.2 12.6 15.8 4.3.8 10.2-.7 13-3.4 3-2.8 3-3.5-.1-5.5-2.3-1.5-2.6-1.5-5.1.5-1.5 1.2-3.7 2.1-4.9 2.1-3 0-7.5-3.7-7.5-6.1 0-1.7.8-1.9 9.9-1.9 6 0 10.2-.4 10.6-1.1 1.4-2.2-.6-10-3.4-13.1-2.4-2.7-3.6-3.2-8.7-3.5-4.4-.3-6.7 0-9.3 1.5m12.1 5.9c1 .9 1.8 2.4 1.8 3.5 0 1.6-.8 1.8-6.5 1.8-7.2 0-8.3-1.2-4.5-5 2.4-2.4 6.7-2.6 9.2-.3M344 672v16h8v-10.3c0-12 1.2-14.7 6.4-14.7 5.1 0 5.6 1.2 5.6 13.7V688h8v-26.2l-2.9-2.9c-4-4-10.5-4.1-15-.3l-3.1 2.6v-2.6c0-2.3-.4-2.6-3.5-2.6H344z"/>
</svg>
