<?xml version="1.0" standalone="no"?>
<!DOCTYPE svg PUBLIC "-//W3C//DTD SVG 20010904//EN"
 "http://www.w3.org/TR/2001/REC-SVG-20010904/DTD/svg10.dtd">
<svg version="1.0" xmlns="http://www.w3.org/2000/svg"
 width="427.000000pt" height="171.000000pt" viewBox="0 0 427.000000 171.000000"
 preserveAspectRatio="xMidYMid meet">

<g transform="translate(0.000000,171.000000) scale(0.100000,-0.100000)"
fill="#000000" stroke="none">
<path d="M630 855 l0 -355 95 0 95 0 0 233 c0 128 4 225 9 217 4 -8 32 -111
61 -227 l52 -213 83 0 83 0 52 213 c29 116 57 219 61 227 5 8 9 -89 9 -217 l0
-233 95 0 95 0 0 355 0 355 -147 0 -148 0 -49 -190 c-27 -105 -50 -189 -51
-188 -3 3 -70 241 -95 336 l-11 42 -144 0 -145 0 0 -355z"/>
<path d="M1600 855 l0 -355 90 0 90 0 0 355 0 355 -90 0 -90 0 0 -355z"/>
<path d="M1925 1178 c4 -18 39 -177 79 -353 l72 -320 149 0 150 0 71 325 c40
179 75 337 78 353 l6 27 -99 0 -98 0 -11 -57 c-6 -32 -25 -141 -42 -243 -40
-237 -38 -230 -55 -230 -18 0 -15 -10 -65 275 -22 127 -42 236 -45 243 -3 8
-33 12 -100 12 l-96 0 6 -32z"/>
<path d="M2670 855 l0 -355 95 0 95 0 -2 353 -3 352 -92 3 -93 3 0 -356z"/>
<path d="M3167 1203 c-6 -10 -167 -678 -167 -692 0 -7 32 -11 89 -11 84 0 89
1 94 23 3 12 29 130 57 262 62 290 58 277 78 273 12 -2 29 -63 74 -278 31
-151 57 -276 58 -277 0 -2 42 -3 94 -3 l93 0 -59 243 c-32 133 -70 293 -85
355 l-27 112 -147 0 c-81 0 -150 -3 -152 -7z"/>
</g>
</svg>
